<svg width="47" height="47" viewBox="0 0 47 47" fill="none" xmlns="http://www.w3.org/2000/svg">
<g id="&#240;&#159;&#166;&#134; icon &#34;circle behance&#34;">
<path id="Vector" d="M30.5667 21.6056C31.2631 21.6056 31.8312 21.8255 32.271 22.2653C32.4909 22.4852 32.665 22.7235 32.7933 22.98C32.9215 23.2366 33.004 23.7314 33.0407 24.4644H28.0928C28.1661 23.7314 28.2669 23.2457 28.3952 23.0075C28.5234 22.7693 28.6792 22.5402 28.8625 22.3203C29.3023 21.8438 29.8704 21.6056 30.5667 21.6056ZM18.7469 20.9459C18.527 21.0925 18.2796 21.2391 18.0047 21.3857C17.7298 21.5323 17.4091 21.6056 17.0426 21.6056H14.4037V17.2625H16.6578C17.0609 17.2625 17.4091 17.3083 17.7023 17.3999C17.9955 17.4916 18.2704 17.574 18.527 17.6473C19.0767 17.9405 19.3516 18.5086 19.3516 19.3516C19.3516 20.1579 19.15 20.6894 18.7469 20.9459ZM18.6919 24.5743C19.0217 24.7576 19.2691 24.9683 19.4341 25.2066C19.599 25.4448 19.6815 25.7838 19.6815 26.2236C19.6815 27.3231 19.3333 28.0562 18.6369 28.4227C18.2338 28.6426 17.7023 28.7525 17.0426 28.7525H14.4037V24.4644H17.0976C17.4641 24.4644 17.7756 24.4552 18.0322 24.4369C18.2887 24.4186 18.5086 24.4644 18.6919 24.5743ZM23.035 0C26.2236 0 29.2107 0.604737 31.9961 1.81421C34.7816 3.02369 37.2188 4.66381 39.3079 6.73458C41.397 8.80534 43.0463 11.2426 44.2558 14.0464C45.4653 16.8502 46.07 19.8464 46.07 23.035C46.07 26.2236 45.4653 29.2107 44.2558 31.9961C43.0463 34.7816 41.397 37.2188 39.3079 39.3079C37.2188 41.397 34.7816 43.0463 31.9961 44.2558C29.2107 45.4653 26.2236 46.07 23.035 46.07C19.8464 46.07 16.8502 45.4653 14.0464 44.2558C11.2426 43.0463 8.80534 41.397 6.73458 39.3079C4.66381 37.2188 3.02369 34.7816 1.81421 31.9961C0.604737 29.2107 0 26.2236 0 23.035C0 19.8464 0.604737 16.8502 1.81421 14.0464C3.02369 11.2426 4.66381 8.80534 6.73458 6.73458C8.80534 4.66381 11.2426 3.02369 14.0464 1.81421C16.8502 0.604737 19.8464 0 23.035 0ZM22.3203 29.1923C22.7968 28.386 23.035 27.4697 23.035 26.4435C23.035 25.4906 22.8334 24.6476 22.4303 23.9146C21.9905 23.2183 21.3674 22.7051 20.5611 22.3753C21.0742 22.1187 21.4773 21.7889 21.7705 21.3857C22.2837 20.7627 22.5402 19.9197 22.5402 18.8568C22.5402 17.8306 22.2837 16.951 21.7705 16.218C21.0009 15.0085 19.6448 14.4037 17.7023 14.4037H10.0606V31.6663H17.2075C17.6107 31.6663 17.9955 31.6479 18.362 31.6113C18.7285 31.5746 19.0767 31.5196 19.4066 31.4463C20.0663 31.2997 20.671 31.0065 21.2208 30.5667C21.6972 30.1269 22.0638 29.6688 22.3203 29.1923ZM27.3231 17.2625H33.0956V14.4037H27.3231V17.2625ZM35.9544 25.8938V24.9042L35.9269 24.1345L35.8994 23.5298C35.7528 22.6135 35.4596 21.8072 35.0198 21.1108C34.7632 20.671 34.4792 20.3045 34.1677 20.0113C33.8561 19.7181 33.5171 19.4799 33.1506 19.2966C32.3443 18.8935 31.483 18.6919 30.5667 18.6919C28.9907 18.6919 27.6896 19.26 26.6634 20.3961C25.6739 21.4957 25.1791 23.1083 25.1791 25.234C25.1791 27.4697 25.7288 29.1007 26.8284 30.1269C27.8912 31.0798 29.174 31.5563 30.6767 31.5563C32.4359 31.5563 33.792 30.9332 34.7449 29.6871C35.0748 29.3206 35.3222 28.9724 35.4871 28.6426C35.652 28.3127 35.7711 27.8729 35.8444 27.3231H32.9307C32.8574 27.8729 32.7658 28.1569 32.6558 28.1753C32.5459 28.1936 32.4359 28.2394 32.326 28.3127C32.1427 28.496 31.9136 28.6609 31.6388 28.8075C31.3639 28.9541 31.0615 29.0274 30.7317 29.0274C30.1452 29.0274 29.6321 28.8625 29.1923 28.5326C28.8258 28.2761 28.5509 27.9554 28.3677 27.5705C28.1844 27.1857 28.0745 26.6268 28.0378 25.8938H35.9544Z" fill="#01000F"/>
</g>
</svg>
