<svg width="47" height="47" viewBox="0 0 47 47" fill="none" xmlns="http://www.w3.org/2000/svg">
<g id="&#240;&#159;&#166;&#134; icon &#34;circle dribble&#34;">
<path id="Vector" d="M23.0075 0C26.1999 0 29.1905 0.60546 31.9793 1.81638C34.7681 3.0273 37.2083 4.66938 39.2999 6.74262C41.3914 8.81586 43.0427 11.2469 44.2536 14.0357C45.4645 16.8244 46.07 19.8151 46.07 23.0075C46.07 26.1999 45.4645 29.1905 44.2536 31.9793C43.0427 34.7681 41.3914 37.2083 39.2999 39.2999C37.2083 41.3914 34.7681 43.0427 31.9793 44.2536C29.1905 45.4645 26.1999 46.07 23.0075 46.07C19.8151 46.07 16.8244 45.4645 14.0357 44.2536C11.2469 43.0427 8.81586 41.3914 6.74262 39.2999C4.66938 37.2083 3.0273 34.7681 1.81638 31.9793C0.60546 29.1905 0 26.1999 0 23.0075C0 19.8151 0.60546 16.8244 1.81638 14.0357C3.0273 11.2469 4.66938 8.81586 6.74262 6.74262C8.81586 4.66938 11.2469 3.0273 14.0357 1.81638C16.8244 0.60546 19.8151 0 23.0075 0ZM23.0075 35.9973C24.8055 35.9973 26.4935 35.6579 28.0713 34.9791C29.6492 34.3002 31.0252 33.3737 32.1995 32.1995C33.3737 31.0252 34.3002 29.6492 34.9791 28.0713C35.6579 26.4935 35.9973 24.8055 35.9973 23.0075C35.9973 21.2094 35.6579 19.5307 34.9791 17.9712C34.3002 16.4116 33.3737 15.0448 32.1995 13.8705C31.0252 12.6963 29.6492 11.7698 28.0713 11.0909C26.4935 10.4121 24.8055 10.0727 23.0075 10.0727C21.2461 10.0727 19.5765 10.4121 17.9987 11.0909C16.4208 11.7698 15.0448 12.6963 13.8705 13.8705C12.6963 15.0448 11.7698 16.4116 11.0909 17.9712C10.4121 19.5307 10.0727 21.2094 10.0727 23.0075C10.0727 24.8055 10.4121 26.4935 11.0909 28.0713C11.7698 29.6492 12.6963 31.0252 13.8705 32.1995C15.0448 33.3737 16.4208 34.3002 17.9987 34.9791C19.5765 35.6579 21.2461 35.9973 23.0075 35.9973ZM24.1083 23.3928C22.2369 24.0166 20.5398 24.9156 19.0169 26.0898C17.4941 27.264 16.1823 28.6768 15.0815 30.328C13.3568 28.4199 12.4028 26.1449 12.2193 23.5029C12.5128 23.5396 12.7789 23.5579 13.0174 23.5579H13.7605C17.1364 23.5579 20.3655 22.9891 23.4478 21.8516L23.7781 22.6222L24.1083 23.3928ZM25.4844 21.026C27.7961 19.9985 29.9427 18.6408 31.9243 16.9529C33.1719 18.7509 33.7957 20.7508 33.7957 22.9524C32.4013 22.6222 31.0436 22.4571 29.7226 22.4571C28.5117 22.4571 27.3374 22.5855 26.1999 22.8424C26.0898 22.5488 25.9797 22.2461 25.8697 21.9342C25.7596 21.6223 25.6311 21.3195 25.4844 21.026ZM16.7327 31.8142C17.6868 30.273 18.861 28.9612 20.2554 27.8787C21.6498 26.7962 23.1726 25.9797 24.8239 25.4293C25.2275 26.6769 25.5578 27.9521 25.8146 29.2547C26.0715 30.5574 26.2733 31.8876 26.4201 33.2453C25.3559 33.6122 24.2184 33.7957 23.0075 33.7957C20.6957 33.7957 18.6041 33.1352 16.7327 31.8142ZM26.9154 24.8789C27.9429 24.6954 28.8786 24.6037 29.7226 24.6037C31.0803 24.6037 32.3646 24.7872 33.5755 25.1541C33.282 26.6586 32.6948 28.0346 31.8142 29.2822C30.9335 30.5299 29.8327 31.539 28.5117 32.3095C28.2548 29.8143 27.7227 27.3374 26.9154 24.8789ZM30.5482 15.3016C29.5942 16.0722 28.6217 16.7786 27.631 17.4207C26.6402 18.0629 25.6128 18.6225 24.5487 19.0995C23.9248 17.962 23.2552 16.852 22.5396 15.7695C21.8241 14.687 21.0443 13.632 20.2003 12.6046C21.081 12.3477 22.0167 12.2193 23.0075 12.2193C24.4386 12.2193 25.7963 12.4853 27.0806 13.0174C28.3649 13.5495 29.5208 14.3109 30.5482 15.3016ZM22.5121 19.9251C19.6866 20.9159 16.7694 21.4113 13.7605 21.4113H13.0174L12.3844 21.3562C12.6413 19.6683 13.2651 18.1271 14.2558 16.7327C15.2466 15.3383 16.5125 14.2375 18.0537 13.4302C19.7784 15.4117 21.2645 17.5767 22.5121 19.9251Z" fill="#01000F"/>
</g>
</svg>
