<svg width="113" height="113" viewBox="0 0 113 113" fill="none" xmlns="http://www.w3.org/2000/svg">
<g id="Footer-logo" clip-path="url(#clip0_51_162)">
<g id="Layer 2">
<g id="Layer 1">
<path id="Vector" d="M4.32131 113L0.063471 72.2387C-0.316209 68.5933 1.02623 65.0428 3.24781 63.8157L6.51577 62.0077C7.02324 61.7147 7.60074 61.565 8.18664 61.5745C8.77253 61.5841 9.34484 61.7525 9.84249 62.0619L41.9164 80.9804C45.0669 82.8403 48.6173 81.7714 51.1056 78.2141L104.758 1.50068C106.159 -0.501681 108.302 -0.499422 109.701 1.50068L111.714 4.3867C113.045 6.2964 113.384 9.37678 112.537 11.8741L78.3363 112.62H69.007L95.1462 35.7578C96.0502 33.1113 93.8467 30.5598 92.4997 32.7L53.0243 95.1573C51.3542 97.797 49.0829 99.2818 46.7121 99.2818C44.7188 99.2818 42.7458 98.6242 40.9265 97.3518L11.9488 77.1067C10.1634 75.8592 8.21755 78.2593 8.57237 81.2742L12.2901 113H4.32131Z" fill="#01000F"/>
</g>
</g>
</g>
<defs>
<clipPath id="clip0_51_162">
<rect width="113" height="113" fill="white"/>
</clipPath>
</defs>
</svg>
