<svg width="47" height="47" viewBox="0 0 47 47" fill="none" xmlns="http://www.w3.org/2000/svg">
<g id="&#240;&#159;&#166;&#134; icon &#34;circle instagram&#34;">
<path id="Vector" d="M22.7873 28.1264C22.0901 28.1264 21.4388 27.9979 20.8333 27.7411C20.2279 27.4842 19.6958 27.1264 19.2371 26.6678C18.7784 26.2091 18.4207 25.6678 18.1638 25.044C17.9069 24.4202 17.7785 23.7597 17.7785 23.0625C17.7785 22.3653 17.9069 21.714 18.1638 21.1085C18.4207 20.5031 18.7784 19.971 19.2371 19.5123C19.6958 19.0536 20.2279 18.6959 20.8333 18.439C21.4388 18.1821 22.0901 18.0537 22.7873 18.0537C24.1817 18.0537 25.3651 18.5399 26.3375 19.5123C27.3099 20.4847 27.7961 21.6681 27.7961 23.0625C27.7961 23.7597 27.6677 24.4202 27.4108 25.044C27.154 25.6678 26.7962 26.2091 26.3375 26.6678C25.8788 27.1264 25.3468 27.4842 24.7413 27.7411C24.1358 27.9979 23.4845 28.1264 22.7873 28.1264ZM30.8234 23.0625C30.8234 22.7323 30.8051 22.3928 30.7684 22.0442C30.7317 21.6957 30.6766 21.3746 30.6033 21.081H32.86V32.1444C32.86 32.438 32.7682 32.6765 32.5848 32.86C32.4013 33.0434 32.1628 33.1352 31.8692 33.1352H13.7054C13.4119 33.1352 13.1733 33.0434 12.9899 32.86C12.8064 32.6765 12.7147 32.438 12.7147 32.1444V21.081H14.9714C14.898 21.3746 14.8429 21.6957 14.8062 22.0442C14.7696 22.3928 14.7512 22.7323 14.7512 23.0625C14.7512 24.1634 14.9622 25.2092 15.3842 26.1999C15.8062 27.1907 16.3749 28.053 17.0905 28.7869C17.806 29.5208 18.6592 30.0987 19.6499 30.5207C20.6407 30.9427 21.6865 31.1537 22.7873 31.1537C23.8881 31.1537 24.9339 30.9427 25.9247 30.5207C26.9154 30.0987 27.7686 29.5208 28.4841 28.7869C29.1997 28.053 29.7684 27.1907 30.1904 26.1999C30.6124 25.2092 30.8234 24.1634 30.8234 23.0625ZM23.0075 0C26.1999 0 29.1905 0.60546 31.9793 1.81638C34.7681 3.0273 37.2083 4.66938 39.2999 6.74262C41.3914 8.81586 43.0427 11.2469 44.2536 14.0357C45.4645 16.8244 46.07 19.8151 46.07 23.0075C46.07 26.1999 45.4645 29.1905 44.2536 31.9793C43.0427 34.7681 41.3914 37.2083 39.2999 39.2999C37.2083 41.3914 34.7681 43.0427 31.9793 44.2536C29.1905 45.4645 26.1999 46.07 23.0075 46.07C19.8151 46.07 16.8244 45.4645 14.0357 44.2536C11.2469 43.0427 8.81586 41.3914 6.74262 39.2999C4.66938 37.2083 3.0273 34.7681 1.81638 31.9793C0.60546 29.1905 0 26.1999 0 23.0075C0 19.8151 0.60546 16.8244 1.81638 14.0357C3.0273 11.2469 4.66938 8.81586 6.74262 6.74262C8.81586 4.66938 11.2469 3.0273 14.0357 1.81638C16.8244 0.60546 19.8151 0 23.0075 0ZM35.8873 12.9899C35.8873 12.1459 35.5937 11.4304 35.0066 10.8432C34.4195 10.2561 33.7039 9.96257 32.86 9.96257H12.7147C11.8707 9.96257 11.1551 10.2561 10.568 10.8432C9.98092 11.4304 9.68736 12.1459 9.68736 12.9899V33.1352C9.68736 33.9791 9.98092 34.6947 10.568 35.2818C11.1551 35.8689 11.8707 36.1625 12.7147 36.1625H32.86C33.7039 36.1625 34.4195 35.8689 35.0066 35.2818C35.5937 34.6947 35.8873 33.9791 35.8873 33.1352V12.9899ZM31.8692 12.9899C32.1628 12.9899 32.4013 13.0908 32.5848 13.2926C32.7682 13.4944 32.86 13.7421 32.86 14.0357V17.063C32.86 17.3565 32.7682 17.595 32.5848 17.7785C32.4013 17.962 32.1628 18.0537 31.8692 18.0537H28.8419C28.5484 18.0537 28.3007 17.962 28.0988 17.7785C27.897 17.595 27.7961 17.3565 27.7961 17.063V14.0357C27.7961 13.7421 27.897 13.4944 28.0988 13.2926C28.3007 13.0908 28.5484 12.9899 28.8419 12.9899H31.8692Z" fill="#01000F"/>
</g>
</svg>
