<svg width="47" height="47" viewBox="0 0 47 47" fill="none" xmlns="http://www.w3.org/2000/svg">
<g id="&#240;&#159;&#166;&#134; icon &#34;circle linkedin&#34;">
<path id="Vector" d="M23.0094 0C26.2021 0 29.193 0.605511 31.982 1.81653C34.771 3.02756 37.2114 4.66978 39.3032 6.7432C41.395 8.81661 43.0464 11.2478 44.2574 14.0369C45.4684 16.8259 46.0739 19.8167 46.0739 23.0094C46.0739 26.2021 45.4684 29.193 44.2574 31.982C43.0464 34.771 41.395 37.2114 39.3032 39.3032C37.2114 41.395 34.771 43.0464 31.982 44.2574C29.193 45.4684 26.2021 46.0739 23.0094 46.0739C19.8167 46.0739 16.8259 45.4684 14.0369 44.2574C11.2478 43.0464 8.81661 41.395 6.7432 39.3032C4.66978 37.2114 3.02756 34.771 1.81653 31.982C0.605511 29.193 0 26.2021 0 23.0094C0 19.8167 0.605511 16.8259 1.81653 14.0369C3.02756 11.2478 4.66978 8.81661 6.7432 6.7432C8.81661 4.66978 11.2478 3.02756 14.0369 1.81653C16.8259 0.605511 19.8167 0 23.0094 0ZM15.8534 17.2846H10.0735V36.0004H15.8534V17.2846ZM12.9359 15.7983C13.7433 15.7983 14.4314 15.5231 15.0002 14.9726C15.569 14.4222 15.8534 13.7433 15.8534 12.9359C15.8534 12.1286 15.569 11.4497 15.0002 10.8992C14.4314 10.3487 13.7433 10.0735 12.9359 10.0735C12.1286 10.0735 11.4497 10.3487 10.8992 10.8992C10.3487 11.4497 10.0735 12.1286 10.0735 12.9359C10.0735 13.7433 10.3487 14.4222 10.8992 14.9726C11.4497 15.5231 12.1286 15.7983 12.9359 15.7983ZM36.0004 25.1562C36.0004 23.8351 35.6334 22.5415 34.8995 21.2755C34.1655 20.0094 33.2114 19.0461 32.0371 18.3855C30.9728 17.7984 29.7343 17.4864 28.3214 17.4497C26.9086 17.413 25.615 17.6516 24.4406 18.1653V17.2846H18.7158V36.0004H24.4406V24.5507L26.8627 23.3948C27.1563 23.248 27.5508 23.1746 28.0462 23.1746C28.5416 23.1746 28.9361 23.2663 29.2297 23.4498C29.4499 23.5599 29.6701 23.7984 29.8902 24.1654C30.1104 24.5324 30.2205 24.8627 30.2205 25.1562V36.0004H36.0004V25.1562Z" fill="#01000F"/>
</g>
</svg>
